<svg version="1.2" baseProfile="tiny-ps" xmlns="http://www.w3.org/2000/svg" viewBox="0 0 1200 804" width="1200" height="804">
	<title>pwchi-world</title>
	<style>
		tspan { white-space:pre }
		.s0 { fill: #387383 } 
		.s1 { fill: #62915e } 
		.s2 { fill: #4d7449 } 
		.s3 { fill: #885534 } 
		.s4 { fill: #922f77 } 
		.s5 { fill: #5dcfe3 } 
		.s6 { fill: #b6caf8 } 
		.s7 { fill: #dd47fd } 
		.s8 { fill: #fd47d4 } 
		.s9 { fill: #6a0505 } 
		.s10 { fill: #e7f6ff } 
		.s11 { fill: #ddad70 } 
		.s12 { fill: #d0cda2 } 
		.s13 { fill: #04bbe2 } 
		.s14 { fill: #e26d04 } 
		.s15 { fill: #2f2f2f } 
		.s16 { fill: #8be368 } 
		.s17 { fill: #b9e8f5 } 
	</style>
	<path id="sea" class="s0" d="m0 0h1200v804h-1200v-804z" />
	<path id="high-filds" fill-rule="evenodd" class="s1" d="m525.12 210.88c1.34 0.4 2.68 0.8 4.03 1.2c6.99 15.36 14.91 24.26 34.85 33.62c8.5 3.99 19.4 4.43 25.77 9.07c8.86 6.46 42.95 46.54 46.31 55.34c-9.21 7.12-21.55 9.54-29.47 18.71c-4.51 5.7-9.02 11.41-13.53 17.11c-3.71 10.87-7.41 21.75-11.12 32.62c-9.97 9.01-19.94 18.02-29.91 27.03c-7.54 7.1-22.19 24.63-33.64 20.28c8.51-33.3-13.6-28.36-49.69-23.94c-4.85 0.59-14.65-10.32-27.18-6.96c-14.88 3.98-32.73 22.56-38.66 26.83c-7 5.04-11.81 11.63-20.5 13.63c-12.19-8.03-2.19-24.99-10.25-34.75c-6.46-3.56-12.92-7.13-19.37-10.69c-3.16-4.7-6.32-9.39-9.47-14.09c-6.56-7.51-18.13-12.47-21.87-21.3c-0.52-8.37-1.04-16.75-1.56-25.12c-10.23-15.55-37.36-23.81-55.75-34.9c1.68-43.48 32.49-28.25 53.62-36.88c2.62-1.07 26.96-19.41 28.07-21.24c4.41-7.27 5.56-18.06 9.13-24.05c15.11-3.03 18.88-12.39 28.63-25.3c12.12 2.42 38.71-6.89 49.12 2.64c-1.72 14.74-2.94 32.16 4.9 42.32c19.82 0.79 30.26-7.03 46.3-11.59c14.23-4.04 27.73-5.12 41.25-9.57z" />
	<path id="tall-tree" class="s2" d="m640.11 295.11l9.64-4.88l11.34 17.46l3.94 6.1l-1.47 11.54l-25.72 9.25l-0.04 7.03l6.59 13.94l6.51 2.64l17.6 2.42l11.14 18.11l3.46 21.46l23.57 18.28l40.48 11.34l19.29-0.6l29.94 7.5l34.67 43.43l-25.72 9.25l-22.3-3.82l-10.57 3.2c0 0-23.32 17.99-24.97 20.75c-1.65 2.76 1.18 19.37 1.18 19.37l19.13 18.37l-4.75 21.84c0 0-22.19 20.87-28.63 25.3c-6.44 4.42-24.39 11.79-28.3 12.72c-1.54 0.37-10.89-11.48-26.08-11.84c-15.86-0.38-37.71 10.5-44.57 0.68c-6.26-8.95-50.83 6.24-59.93 8.24c-9.1 1.99-16.19 25.48-16.19 25.48c0 0-36.4 12.88-41.87 11.5c-5.47-1.38-33.33-9.37-41.61-12.38c-8.28-3.01-37.79-10.54-37.79-10.54l-13.52-24.45l21.77-24.52l29.36 2.4c0 0 14.74-7.4 24.14-20.06c4.37-5.88 1.65-14.65 6.48-21.16c7.38-9.93 21.06-16.34 26.62-23.81c5.72-7.7 3.19-16.32 3.19-16.32l1.23-3.86c0 0-0.89-2.5-1.87-3.37c-0.97-0.87-2.74-1.95-4.08-3.33c-1.34-1.38-6.13-5.56-6.42-7.54c-0.28-1.99 0.19-1.47 1.02-3.22c0.83-1.75-0.32-5.95-0.64-7.23c-0.32-1.28-8.72-5.4-9.71-6.41c-0.99-1.01-3.96-5.89-1.16-10.21c2.8-4.32-9.88-12.8-9.88-12.8c0 0 4.58-7.75 13.81-6.46c9.23 1.29 16.55-5.33 20-7.43c3.45-2.1 5.87-6.12 8.44-8.06c2.58-1.94 34.44-32.02 34.44-32.02c0 0 11.78-32.79 12.2-33.71c0.42-0.92 16.1-19.15 18.52-21.26c2.43-2.11 24.06-13.27 24.06-13.27l4.04-15z" />
	<path id="ignia" fill-rule="evenodd" class="s3" d="m773.33 271.34c28.77 8.07 60.29 37.47 75.56 53.48c8.53 8.95 16.03 20.95 28.7 27.56c20.3 10.59 35.22 1.19 50 2.19c19.71 1.34 53.57 21.09 57.86 30.6c-7.26 13.62-23.68 18.4-32.95 29.65c-4.58 11.32-9.17 22.64-13.75 33.95c-10.74 15.19-28.1 25.45-42.12 35.37c-4.65 3.3-27.94 18.77-34.69 14.34c-3.37-2.21-24.33-25-27.41-29.29c-3.06-6.55-6.12-13.09-9.18-19.64c-1.98-2.54-39.97-27.97-43.41-29.82c-29.3-15.78-60.52 5.39-84.92-21.74c0.97-8.47 4.99-19.34 0.66-25.16c-7.04-9.47-19.83-10.62-16-25.9c19.77-16.42 13.9-38.59 12.99-44.81c-1.93-11.28-7.48-11.74-9.56-12.15c-1.83-1.95-2.4 3.72-4.23 1.76c1.27 0.61-3.74-9.85-2.47-9.24c-2.85-6.26-2.87-3.9 2.78-12.51c7.69 2.76 15.39 5.52 23.08 8.28c10.58 7.86 17.77 27.44 35.82 28.27c8.13-17.95 18.06-30.63 33.25-35.2z" />
	<path id="seamoon-teritory" class="s4" d="m471.56 517.6c-1.72-0.75-3.44-1.49-5.16-2.24c-1.26-10.22-15.62-28.6-25.98-33.79c-8.27-4.15-20.26 4.11-24.16-7.19c0.52-5.48 1.04-10.96 1.56-16.44c6.51-6.6 22.27-10.82 32.53-12.16c10.47 2.95 11.7 8.29 17.01 13.51c17.26 16.97 33.17 35.23 4.21 58.32zm-49.9-23.3c18.65-11.8 38.7 39.48 41.03 48.84c-5.66 18.38-40.92 5.44-37.43 11.41c-6.29 19.04-18.43 8.86-16.55 28.89c1.22 12.93 16.4 21.97 16.44 33.77c-19.69 19.89-37.22 4.28-64.24-3.61c-27.24-7.96-64.53-14.27-64.53-14.27l-9.77-8.54l-30.18 0.18c-1.35-11.39-16.82-62.96-22.97-70.94c-8.21-10.65-19.17-17.13-23.65-29.58c-1.76-4.9-6.81-30.6-1.22-37.7c8.45-5 16.9-10 25.35-15c7.49-6.75 3.9-19.29 10.15-27.27c4.48-5.73 5.38-1.6 9-12.12c-6.14-8.4-0.47-9.3 2.14-11.34c6.31-0.08 9.62-0.21 16.93 2.22c2.04-6.61-4.75-11.54-2.21-16.15c0.59-13.76-1.98-14.01-7.03-21.05c-6.55-9.15-15.14-23.8-4.4-33.07c6.26 1.86 12.53 3.73 18.79 5.59c8.71 10.34 17.42 20.68 26.13 31.02c2.03 9.76 4.07 19.53 6.11 29.29c3.56 7.54 17.48 12.61 22.34 22.15c-8.24 25.05 0.19 31.1 11.71 48.19c-2.01 11.05 4.2 18.66 11.37 19.47c8.84 1 18.07-5 30.46-7.35c11.64 3.46 28.41 31.93 36.23 26.98z" />
	<path id="wildice" class="s5" d="m781.9 92.19c44.22-0.79 97.71-1.1 125.53 16.07c17.92 11.06 28.42 29.48 49.88 37.77c6.37 1.88 12.75 3.75 19.12 5.63c8.14 4.73 44.03 35.01 32.42 50.63c-10.93-3.54-21.77 0.97-30.76 3.21c-9.91 2.48-22.36 0.95-29.93 5.63c-16.73 10.32-31.35 35.7-54.04 38.58c-31.64-18.84-56.05-47.73-86.46-69.12c-7.48-6.16-14.96-12.32-22.45-18.48c-9.37-2.44-19.4 9.8-24.94 12.86c-5.04 2.78-70.15 15.27-75.65 13.66c-8.58-2.51-10.94-10.72-15.8-16.88c-6.46-8.19-37.68-31.33-49.88-32.95c-10.81 4.55-21.62 9.11-32.42 13.66c-8.31 6.7-16.63 13.4-24.94 20.09c-20.11 11.81-58.58 19.89-93.11 13.66c-0.28-5.89-0.55-11.79-0.83-17.68c-2.42-9.41-10.41-15.1-15.8-21.7c4.16-4.29 8.31-8.57 12.47-12.86c-5.22-6.64-10.38-10.68-14.13-19.29c0-0.27 0-0.54 0-0.8c18.44-2.76 23.1-9.36 33.25-19.29c21.35-0.05 37.17 2.82 53.21 5.63c24.11-0.27 48.22-0.54 72.33-0.8c18.8 3.45 39.49 16.5 61.52 12.86c21.61-3.57 38.97-12.4 59.02-16.07c18.78-3.44 38.04 2.23 52.37-4.02zm-389.06 21.7c16.94-0.4 48.3 11.15 50.71 24.11c-1.66 0-3.33 0-4.99 0c-15.64-4.55-43.07-3.7-56.53-11.25c0.28-0.8 0.55-1.61 0.83-2.41c4.26-2.71 7.09-6.47 9.98-10.45zm333.37 77.96c10.32-0.39 19.21 0.7 24.94 4.82c-0.55 0.27-1.11 0.54-1.66 0.8c-12.66 12.24-20.17 30.03-30.76 44.2c-15.46-0.48-13.26-19.81-18.29-32.15c-2.77-2.41-5.54-4.82-8.31-7.23c0-0.27 0-0.54 0-0.8c11.42-0.43 26.08-4.57 34.08-9.64zm47.39 13.66c28.76 4.14 48.12 1.73 48.22 33.75c0 6.43 0 12.86 0 19.29c-8.87-6.16-17.74-12.32-26.6-18.48c-15.46-8.78-26.29-3.86-39.07-16.88c0-1.61 0-3.21 0-4.82c5.82-4.29 11.64-8.57 17.46-12.86zm161.28 63.49c-0.38-19.99 7.13-31.36 19.95-37.77c4.16-0.8 8.31-1.61 12.47-2.41c3.05-4.29 6.1-8.57 9.14-12.86c6.38-4.67 30.64-3.47 39.9-1.61c0.28 0.8 0.55 1.61 0.83 2.41c4.7 11.23-16.78 41.74-25.77 43.4c-11.08-0.8-22.17-1.61-33.25-2.41c-7.7 2.77-11.56 10.3-23.28 11.25zm25.77-40.99c0.55 0 1.11 0 1.66 0c-0.55 0-1.11 0-1.66 0zm-1.66 0.8c0.55 0 1.11 0 1.66 0c-0.55 0-1.11 0-1.66 0zm-93.11 27.32c4.16 0.27 8.31 0.54 12.47 0.8c0.83 0.54 1.66 1.07 2.49 1.61c0.55 4.55 1.11 9.11 1.66 13.66c-8.4 0.17-17.07 1.84-21.61 0c-1.17-4.24-2.88-6.52-1.66-11.25c3.6-0.8 7.21-1.61 10.81-2.41c-1.39-0.8-2.77-1.61-4.16-2.41z" />
	<path id="aboveclpods1" fill-rule="evenodd" class="s6" d="m230.91 76.03c18.91-0.55 23.41 9.2 34.42 15.88c15.4 22.77 1.63 29.05 0.96 43.91c5.78 4.11 18.75 7.63 19.16 20.36c3 20.21-2.02 24.79 0.92 39.43c6.37 3.74 7.01 8.41 13.39 12.15c0.55 17.68 3.63 29.55-2.87 40.17c-10.84 5.29-21.67 10.59-32.51 15.88c-2.55 8.1-5.1 16.19-7.65 24.29c-8.18 11.94-23.52 13.85-35.38 22.42c-2.55 5.6-5.1 11.21-7.65 16.82c-4.85 6.54-16.32 9.16-24.86 12.15c-2.87 7.16-5.74 14.33-8.61 21.49c7.84 10.21 21.27 22.35 21.99 38.3c-5.98 22.08-18.87 29.69-38.25 42.98c-19.8-1.4-41.35-10.46-44.94-28.03c-5.23-25.59 4.34-27.48-13.39-42.04c-0.91-26.94-2.22-56.04 25.82-61.66c8.51 7.06 6.42-33.43 3.82-30.83c-6.37-4.98 0.64-35.19-5.74-40.17c-3.19-6.54-11.16-14.01-14.34-20.55c-10.02 0.02-43.65 2.06-50.68-1.87c-10.17-17.92-9.6-48.45-0.96-61.66c5.2-7.95 21.34-12.82 29.64-17.75c1.27-9.65 2.55-19.31 3.82-28.96c2.24-2.91 45.31-13.64 50.68-11.21c20.12 9.09 9.17 26.2 43.98 19.62c4.06-7.67 6.77-18.81 8.61-28.96c13.11-2.92 18.75-4.63 30.6-12.15z" />
	<path id="aboveclouds2" class="s7" d="m160.31 163.99l-30.08 9.15l-23.15-20.88l6.93-30.03l30.08-9.15l23.15 20.88l-6.93 30.03zm55.46 13.08l-30.08 9.15l-23.15-20.88l6.93-30.03l30.08-9.15l23.15 20.88l-6.93 30.03zm-40.16 40.17l-30.08 9.15l-23.15-20.88l6.93-30.03l30.08-9.15l23.15 20.88l-6.93 30.03zm55.46 14.01l-30.08 9.15l-23.15-20.88l6.93-30.03l30.08-9.15l23.15 20.88l-6.93 30.03zm-40.16 40.17l-30.08 9.15l-23.15-20.88l6.93-30.03l30.08-9.15l23.15 20.88l-6.93 30.03zm80.32-80.34l-30.08 9.15l-23.15-20.88l6.93-30.03l30.08-9.15l23.15 20.88l-6.93 30.03zm-25.82 94.36l-30.08 9.15l-23.15-20.88l6.93-30.03l30.08-9.15l23.15 20.88l-6.93 30.03zm41.12-39.24l-30.08 9.15l-23.15-20.88l6.93-30.03l30.08-9.15l23.15 20.88l-6.93 30.03zm-30.6-109.31l-30.08 9.15l-23.15-20.88l6.93-30.03l30.08-9.15l23.15 20.88l-6.93 30.03zm-135.78 67.27l-30.08 9.15l-23.15-20.88l6.93-30.03l30.08-9.15l23.15 20.88l-6.93 30.03zm84.14 121.45l-30.08 9.15l-23.15-20.88l6.93-30.03l30.08-9.15l23.15 20.88l-6.93 30.03zm-38.25 42.98l-30.08 9.15l-23.15-20.88l6.93-30.03l30.08-9.15l23.15 20.88l-6.93 30.03zm16.26 54.19l-30.08 9.15l-23.15-20.88l6.93-30.03l30.08-9.15l23.15 20.88l-6.93 30.03z" />
	<path id="skyroks1" fill-rule="evenodd" class="s6" d="m1037.47 408.88c16.22-2.43 19.64 8.85 27.93 17.42c9.29-0.52 24.36-7.38 31.13-5.11c26.32 8.83 54.57 50.98 26.39 76.79c-8.44 3.23-16.88 6.46-25.32 9.69c-1.88 6.72-3.76 13.43-5.64 20.15c-10 12-38.52 19-37.15 37.72c6.5 9.6 17.38 16 26.8 21.45c2.85 12.51-3.8 47.02-9.79 52.39c-28.59 22.84-59.89-3.25-75.75-12.87c-19.85 6.2-6.5 25.33-16.9 36.63c-6.1 6.63-21.73 8.91-28.14 15.01c-0.3 7.84 0.17 16.99-2.08 23.27c-22.57 7.59-49.58 11.84-67.14 5.46c-5.06-2.51-10.12-5.01-15.18-7.52c-8.88 1.09-17.75 2.19-26.63 3.28c-12.33-0.63-25.75-13.77-32.05-23.29c-8.99-13.58 3.72-31.9-5.03-48.56c-3.25-3.18-6.5-6.36-9.75-9.53c-2.06-11.67-4.11-23.33-6.17-35c-5.23-23.64-15.01-16.47-8.97-43.98c0.63-4.88 1.26-9.77 1.88-14.66c8.54-12.04 40.77-17.84 51.95-8.21c6.88 5.93 9.05 13.95 16.49 18.7c12.28-2.26 24.06-8.42 30.95-10.79c9.26 7.64 18.38 10.09 24.18 22.92c3.73 8.25 5.81 16.57 1.9 22.03c-0.4 0.56-7.41 8.13-5.17 11.52c5.56 8.41 12.64 18.39 17.58 19.81c8.78 2.52 22.4-3.54 27.85-9.18c1.1-8.46 3.52-16.05 0.99-20.79c-3.34-6.26-16.77-14.64-22.9-19.71c-3.15-13.73-3.17-31.17 1.34-41.22c3.78-8.43 31.19-21.48 45.2-17.38c10.53 3.08 19.25 15.74 30.37 19.81c5.75-3.66 11.51-7.32 17.26-10.98c1.33-26.55-36-37.9-19.64-72.38c15.06-6.48 28.02-13.47 39.21-22.88z" />
	<path id="skyroks2" class="s8" d="m1086.62 496.91l-22.68-20.35l6.7-29.36l29.38-9.01l22.68 20.35l-6.7 29.36l-29.38 9.01zm-37.02-176.72l-15.33-14.32l5.03-20.13l20.36-5.81l15.33 14.32l-5.03 20.13l-20.36 5.81zm12.21 155.4l-29.38 9.01l-22.68-20.35l6.7-29.36l29.38-9.01l22.68 20.35l-6.7 29.36zm-58.76-96.8l-15.33-14.32l5.03-20.13l20.36-5.81l15.33 14.32l-5.03 20.13l-20.36 5.81zm44.96 162.88l-6.7 29.36l-29.38 9.01l-22.68-20.35l6.7-29.36l29.38-9.01l22.68 20.35zm-91.39 25.33l-22.68-20.35l6.7-29.36l29.38-9.01l22.68 20.35l-6.7 29.36l-29.38 9.01zm15.39 56.15l-6.7 29.36l-29.38 9.01l-22.68-20.35l6.7-29.36l29.38-9.01l22.68 20.35zm-91.39 25.33l-22.68-20.35l6.7-29.36l29.38-9.01l22.68 20.35l-6.7 29.36l-29.38 9.01zm-17.41-51.86l-22.68-20.35l6.7-29.36l29.38-9.01l22.68 20.35l-6.7 29.36l-29.38 9.01zm-55.31-13.04l-22.68-20.35l6.7-29.36l29.38-9.01l22.68 20.35l-6.7 29.36l-29.38 9.01zm30.81-6.87l22.68 20.35l-6.7 29.36l-29.38 9.01l-22.68-20.35l6.7-29.36l29.38-9.01zm15.72 53.14l22.68 20.35l-6.7 29.36l-29.38 9.01l-22.68-20.35l6.7-29.36l29.38-9.01zm55.31 13.04l22.68 20.35l-6.7 29.36l-29.38 9.01l-22.68-20.35l6.7-29.36l29.38-9.01zm47.56-72.66l29.38-9.01l22.68 20.35l-6.7 29.36l-29.38 9.01l-22.68-20.35l6.7-29.36zm84.69 4.03l22.68 20.35l-6.7 29.36l-29.38 9.01l-22.68-20.35l6.7-29.36l29.38-9.01zm-15.58-57.07l6.7-29.36l29.38-9.01l22.68 20.35l-6.7 29.36l-29.38 9.01l-22.68-20.35zm102.27 29.34l15.33 14.32l-5.03 20.13l-20.36 5.81l-15.33-14.32l5.03-20.13l20.36-5.81z" />
	<path id="darkclan" class="s9" d="m1135.47 201.93l8.53-3.36l-8.04 6.45l2.46 6.17l-1.31 3.08l-1.97-0.56l1.48 1.96h-1.81l1.31 1.4l-1.81 0.56l1.64 5.89l-1.81 4.49l-1.15-1.12l-2.3-1.96l0.16-6.45l2.3-5.33l-2.63-0.56l1.64-2.8l3.28 0.56l-1.31-4.77l-3.94 1.4l-0.82 4.21l-0.66 0.56v-9.53l3.12-2.8v1.4l4.59-2.8l-1.48 2.52l0.49 1.4zm-9.68 5.05l-3.94-1.4l-1.31 4.77l3.28-0.56l1.64 2.8l-2.63 0.56l2.3 5.33l0.16 6.45l-2.3 1.96l-1.15 1.12l-1.81-4.49l1.64-5.89l-1.81-0.56l1.31-1.4h-1.81l1.48-1.96l-1.97 0.56l-1.31-3.08l2.46-6.17l-8.04-6.45l8.53 3.36l0.49-1.4l-1.48-2.52l4.59 2.8v-1.4l3.12 2.8v9.53l-0.66-0.56l-0.82-4.21z" />
	<path id="wildico" class="s10" d="m862.25 137.36l12.7 19.42c0.36 0.55 0.54 1.2 0.54 1.95c0 0.75-0.18 1.4-0.54 1.95c-0.36 0.55-0.78 0.82-1.28 0.82h-25.4c-0.49 0-0.92-0.27-1.28-0.82c-0.36-0.55-0.54-1.2-0.54-1.95c0-0.75 0.18-1.4 0.54-1.95l12.7-19.42c0.36-0.55 0.78-0.82 1.28-0.82c0.49 0 0.92 0.27 1.28 0.82v0z" />
	<path id="ignia" class="s11" d="m832.25 383.64c-0.36 0.55-0.78 0.82-1.28 0.82c-0.49 0-0.92-0.27-1.28-0.82l-12.7-19.42c-0.36-0.55-0.54-1.2-0.54-1.95c0-0.75 0.18-1.4 0.54-1.95c0.36-0.55 0.78-0.82 1.28-0.82h25.4c0.49 0 0.92 0.27 1.28 0.82c0.36 0.55 0.54 1.2 0.54 1.95c0 0.75-0.18 1.4-0.54 1.95l-12.7 19.42v0z" />
	<path id="talltrees" class="s12" d="m638.25 458.36l12.7 19.42c0.36 0.55 0.54 1.2 0.54 1.95c0 0.75-0.18 1.4-0.54 1.95c-0.36 0.55-0.78 0.82-1.28 0.82h-25.4c-0.49 0-0.92-0.27-1.28-0.82c-0.36-0.55-0.54-1.2-0.54-1.95c0-0.75 0.18-1.4 0.54-1.95l12.7-19.42c0.36-0.55 0.78-0.82 1.28-0.82c0.49 0 0.92 0.27 1.28 0.82v0z" />
	<path id="seamoon" class="s13" d="m337.49 523.63c-0.92 2.63-2.48 4.8-4.7 6.53c-2.22 1.72-4.73 2.71-7.53 2.96c-1.95 0.18-3.86-0.04-5.71-0.64c-1.86-0.6-3.49-1.48-4.92-2.65c-1.42-1.16-2.61-2.6-3.55-4.29c-0.95-1.7-1.52-3.51-1.72-5.45c-0.2-1.9-0.02-3.75 0.52-5.55c0.54-1.8 1.36-3.39 2.47-4.77c1.1-1.38 2.47-2.53 4.11-3.46c1.64-0.93 3.41-1.52 5.31-1.77c0.55-0.07 0.96 0.13 1.22 0.62c0.28 0.49 0.23 0.95-0.14 1.37c-0.98 1.07-1.68 2.27-2.12 3.61c-0.44 1.34-0.58 2.72-0.43 4.15c0.19 1.84 0.82 3.5 1.9 4.97c1.07 1.47 2.44 2.59 4.1 3.36c1.66 0.77 3.41 1.07 5.27 0.9c1.48-0.13 2.87-0.58 4.18-1.33c0.49-0.27 0.95-0.23 1.38 0.12c0.19 0.16 0.32 0.36 0.39 0.6c0.07 0.24 0.07 0.48-0.01 0.72z" />
	<path id="moonaboveclouds" class="s14" d="m196.42 220.16c-1.57-2.28-2.38-4.81-2.44-7.59c-0.06-2.78 0.65-5.36 2.12-7.74c1.03-1.66 2.34-3.04 3.93-4.17c1.59-1.12 3.28-1.9 5.07-2.35c1.79-0.44 3.64-0.54 5.57-0.29c1.93 0.25 3.73 0.87 5.41 1.86c1.65 0.97 3.03 2.2 4.15 3.69c1.12 1.49 1.91 3.08 2.36 4.78c0.45 1.69 0.56 3.46 0.33 5.31c-0.23 1.85-0.81 3.61-1.76 5.27c-0.27 0.48-0.68 0.68-1.23 0.6c-0.56-0.07-0.9-0.38-1.01-0.92c-0.27-1.41-0.82-2.68-1.63-3.82c-0.81-1.14-1.84-2.07-3.08-2.8c-1.59-0.94-3.3-1.41-5.13-1.43c-1.83-0.02-3.54 0.41-5.15 1.27c-1.61 0.87-2.9 2.08-3.87 3.65c-0.78 1.25-1.25 2.62-1.43 4.11c-0.08 0.55-0.38 0.89-0.92 1.02c-0.24 0.06-0.48 0.05-0.72-0.04c-0.24-0.09-0.43-0.23-0.57-0.43z" />
	<path id="skyroks" class="s15" d="m994 590.42c0 1.97-0.38 3.86-1.15 5.66c-0.77 1.8-1.8 3.35-3.09 4.65c-1.29 1.3-2.84 2.34-4.63 3.11c-1.79 0.77-3.67 1.16-5.63 1.16c-1.96 0-3.84-0.39-5.63-1.16c-1.79-0.77-3.33-1.81-4.63-3.11c-1.29-1.3-2.33-2.85-3.09-4.65c-0.77-1.8-1.15-3.69-1.15-5.66c0-2.41 0.54-4.66 1.63-6.74c1.09-2.09 2.58-3.81 4.47-5.16c1.89-1.35 4-2.19 6.32-2.53v4.23c-2.38 0.49-4.36 1.69-5.93 3.6c-1.57 1.91-2.35 4.11-2.35 6.6c0 1.41 0.28 2.76 0.83 4.04c0.55 1.29 1.29 2.39 2.21 3.32c0.92 0.93 2.02 1.67 3.3 2.22c1.28 0.55 2.62 0.83 4.02 0.83c1.4 0 2.74-0.28 4.02-0.83c1.28-0.55 2.38-1.29 3.3-2.22c0.92-0.93 1.66-2.03 2.21-3.32c0.55-1.29 0.83-2.63 0.83-4.04c0-2.49-0.78-4.7-2.35-6.6c-1.57-1.91-3.55-3.11-5.93-3.6v-4.23c2.32 0.34 4.43 1.18 6.32 2.53c1.89 1.35 3.38 3.07 4.47 5.16c1.09 2.09 1.63 4.34 1.63 6.74z" />
	<path id="sky" class="s15" d="m461 306.42c0 1.97-0.38 3.86-1.15 5.66c-0.77 1.8-1.8 3.35-3.09 4.65c-1.29 1.3-2.84 2.34-4.63 3.11c-1.79 0.77-3.67 1.16-5.63 1.16c-1.96 0-3.84-0.39-5.63-1.16c-1.79-0.77-3.33-1.81-4.63-3.11c-1.29-1.3-2.33-2.85-3.09-4.65c-0.77-1.8-1.15-3.69-1.15-5.66c0-2.41 0.54-4.66 1.63-6.74c1.09-2.09 2.58-3.81 4.47-5.16c1.89-1.35 4-2.19 6.32-2.53v4.23c-2.38 0.49-4.36 1.69-5.93 3.6c-1.57 1.91-2.35 4.11-2.35 6.6c0 1.41 0.28 2.76 0.83 4.04c0.55 1.29 1.29 2.39 2.21 3.32c0.92 0.93 2.02 1.67 3.3 2.22c1.28 0.55 2.62 0.83 4.02 0.83c1.4 0 2.74-0.28 4.02-0.83c1.28-0.55 2.38-1.29 3.3-2.22c0.92-0.93 1.66-2.03 2.21-3.32c0.55-1.29 0.83-2.63 0.83-4.04c0-2.49-0.78-4.7-2.35-6.6c-1.57-1.91-3.55-3.11-5.93-3.6v-4.23c2.32 0.34 4.43 1.18 6.32 2.53c1.89 1.35 3.38 3.07 4.47 5.16c1.09 2.09 1.63 4.34 1.63 6.74z" />
	<path id="moon" class="s16" d="m459.67 311.71c-0.91 2.61-2.47 4.77-4.67 6.47c-2.2 1.7-4.7 2.66-7.49 2.88c-1.94 0.15-3.84-0.08-5.68-0.69c-1.85-0.62-3.48-1.51-4.89-2.69c-1.41-1.18-2.59-2.62-3.53-4.32c-0.94-1.7-1.51-3.52-1.71-5.46c-0.2-1.9-0.03-3.74 0.51-5.53c0.54-1.79 1.35-3.37 2.45-4.73c1.1-1.36 2.46-2.5 4.08-3.41c1.63-0.91 3.39-1.48 5.28-1.71c0.55-0.07 0.95 0.14 1.21 0.64c0.28 0.49 0.23 0.95-0.14 1.36c-0.97 1.05-1.67 2.25-2.11 3.58c-0.43 1.33-0.58 2.71-0.43 4.14c0.19 1.84 0.82 3.5 1.89 4.98c1.07 1.48 2.43 2.61 4.08 3.39c1.65 0.78 3.4 1.1 5.24 0.95c1.47-0.12 2.86-0.55 4.16-1.29c0.49-0.26 0.94-0.22 1.37 0.14c0.19 0.16 0.32 0.36 0.39 0.61c0.07 0.25 0.07 0.48-0.01 0.71z" />
	<path id="cloud1" fill-rule="evenodd" class="s17" d="m976 137c-0.33-2.33-0.67-4.67-1-7c-17.69 1.72-35.08 2.77-45-8c0.33-2.33 0.67-4.67 1-7c2.91-7.56 9.8-12.69 20-13c6.33 3.37 5.41 3.83 11 0c4.64-9.84 17.14-17.25 27-22c3.04 3.1 5.42 6.38 10 8c19.04-7.61 50.02-16.69 42 19c24.89-0.35 45.58-12.38 63 0c3.02 9.81 0.07 11.74-5 18c-13.62 4.56-33.54 1.05-52 4c-23.32 3.72-44.64 7.92-71 8z" />
	<path id="cloud2" fill-rule="evenodd" class="s17" d="m558 259c-0.33-2.33-0.67-4.67-1-7c-17.69 1.72-35.08 2.77-45-8c0.33-2.33 0.67-4.67 1-7c2.91-7.56 9.8-12.69 20-13c6.33 3.37 5.41 3.83 11 0c4.64-9.84 17.14-17.25 27-22c3.04 3.1 5.42 6.38 10 8c19.04-7.61 50.02-16.69 42 19c24.89-0.35 45.58-12.38 63 0c3.02 9.81 0.07 11.74-5 18c-13.62 4.56-33.54 1.05-52 4c-23.32 3.72-44.64 7.92-71 8z" />
	<path id="cloud3" fill-rule="evenodd" class="s17" d="m976 698c-0.33-2.33-0.67-4.67-1-7c-17.69 1.72-35.08 2.77-45-8c0.33-2.33 0.67-4.67 1-7c2.91-7.56 9.8-12.69 20-13c6.33 3.37 5.41 3.83 11 0c4.64-9.84 17.14-17.25 27-22c3.04 3.1 5.42 6.38 10 8c19.04-7.61 50.02-16.69 42 19c24.89-0.35 45.58-12.38 63 0c3.02 9.81 0.07 11.74-5 18c-13.62 4.56-33.54 1.05-52 4c-23.32 3.72-44.64 7.92-71 8z" />
	<path id="cloud4" fill-rule="evenodd" class="s17" d="m534 576c-0.33-2.33-0.67-4.67-1-7c-17.69 1.72-35.08 2.77-45-8c0.33-2.33 0.67-4.67 1-7c2.91-7.56 9.8-12.69 20-13c6.33 3.37 5.41 3.83 11 0c4.64-9.84 17.14-17.25 27-22c3.04 3.1 5.42 6.38 10 8c19.04-7.61 50.02-16.69 42 19c24.89-0.35 45.58-12.38 63 0c3.02 9.81 0.07 11.74-5 18c-13.62 4.56-33.54 1.05-52 4c-23.32 3.72-44.64 7.92-71 8z" />
	<path id="cloud5" fill-rule="evenodd" class="s17" d="m269 316c-0.33-2.33-0.67-4.67-1-7c-17.69 1.72-35.08 2.77-45-8c0.33-2.33 0.67-4.67 1-7c2.91-7.56 9.8-12.69 20-13c6.33 3.37 5.41 3.83 11 0c4.64-9.84 17.14-17.25 27-22c3.04 3.1 5.42 6.38 10 8c19.04-7.61 50.02-16.69 42 19c24.89-0.35 45.58-12.38 63 0c3.02 9.81 0.07 11.74-5 18c-13.62 4.56-33.54 1.05-52 4c-23.32 3.72-44.64 7.92-71 8z" />
</svg>