<svg version="1.2" baseProfile="tiny-ps" xmlns="http://www.w3.org/2000/svg" viewBox="0 0 250 350" width="250" height="350">
	<title>tall tree clan</title>
	<defs>
		<linearGradient id="grd1" gradientUnits="userSpaceOnUse"  x1="50.3" y1="107.1" x2="197.7" y2="239.9">
			<stop offset=".3" stop-color="#ffffff" stop-opacity=".2" />
			<stop offset=".6" stop-color="#ffffff" stop-opacity="0" />
		</linearGradient>
	</defs>
	<style>
		tspan { white-space:pre }
		.s0 { opacity: .6;fill: #000000 } 
		.s1 { fill: #632610 } 
		.s2 { opacity: .1;fill: #000000 } 
		.s3 { fill: #2f2f2f } 
		.s4 { fill: #bc5733 } 
		.s5 { opacity: 0;fill: #4a4643 } 
		.s6 { opacity: 0;fill: #f76c0f } 
		.s7 { fill: #e9d186 } 
		.s8 { opacity: 0;fill: #47bc18 } 
		.s9 { fill: url(#grd1) } 

#flag{fill:#09751d}
#sides{fill:#4df06b;}
#top{fill:#0f420e;filter:drop-shadow(0 3px 2px #000);} 
.s7{fill:#e9d186;animation: DoAnim 12s infinite;transform:rotateY(0deg) rotateX(180deg) translateY(50px);transform-origin:center center;}
@keyframes DoAnim{
0%{filter:drop-shadow(0 2px 0px #000);}
25%{fill:#b6dbfc;filter:drop-shadow(0 0px 7px #2992f0);}
50%{fill:#b6dbfc;filter:drop-shadow(0 0px 7px #2992f0);transform:rotateY(180deg) rotateX(180deg) translateY(70px);}
75%{fill:#b6dbfc;filter:drop-shadow(0 0px 7px #2992f0);}
100%{filter:drop-shadow(0 2px 0px #000);}
}
	</style>
	<path id="shadow" class="s0" d="m13 36h223v310c0 0-1.1 0-3.16 0c-12.58 0-96.44-90-107.98-90c-11.42 0-95.89 90-108.57 90c-2.14 0-3.29 0-3.29 0v-310z" />
	<path id="flag" class="s1" d="m13 32h223v310c0 0-1.1 0-3.16 0c-12.58 0-96.44-90-107.98-90c-11.42 0-95.89 90-108.57 90c-2.14 0-3.29 0-3.29 0v-310z" />
	<path id="shape" fill-rule="evenodd" class="s2" d="m202 184c-2.33 0-4.67 11-7 11c-26.02 19.85-38.76-22.98-119.9 71.92c-5.68 6.64-23.56 24.11-34.71 27.78c-0.07-13.45 56.77-81.95 83.6-98.71c8.54-5.33 32.64-18.98-12-17c-58.67 19.74-82.12 27.4-51 5c0-0.33 7-3.67 7-4c29.83-19.82 77.09-28.31 104-52c0-2.33 0-4.67 0-7c-22.43-2.61-106.22 5.96-116-2c0.79-4.76 7-5.86 7-11c8-6 16-12 24-18c26.33-12.33 52.67-24.67 79-37c0-0.33 0-0.67 0-1c-6.67 1.33-13.33 2.67-20 4c15.72-4.23 33.96-10.9 55-7c-6.69 29.38-50.13 24.57-68 43c31.78-0.86 59.01-3.02 75 14c-0.51 29.17-22.12 39.77-35 57c0.33 0.67 0.67 1.33 1 2c12.7-0.39 22.93 1.16 30 6c-0.67 4.33-1.33 8.67-2 13zm-58-127c0.67 0 1.33 0 2 0c-0.67 0-1.33 0-2 0z" />
	<path id="top" class="s3" d="m153.38 34.7c0.44 1.07 1.69 5.07 1.62 5.92c-0.06 0.85-0.87 4.79-2.12 6.2c-1.25 1.41-3.43 3.04-4.56 3.49c-1.12 0.45-8.63 1.69-11.67 0.62c-1.78-0.63-2.62-1.07-3.18-0.73c-0.56 0.34-2.34 3.27-3.73 3.18c-1.04-0.07-3.32 1.97-4.42 3.02v0.61c0 0-0.12-0.12-0.31-0.31c-0.19 0.19-0.31 0.31-0.31 0.31v-0.61c-1.11-1.05-3.39-3.09-4.42-3.02c-1.39 0.09-3.17-2.84-3.73-3.18c-0.56-0.34-1.4 0.1-3.18 0.73c-3.04 1.07-10.55-0.17-11.67-0.62c-1.12-0.45-3.31-2.08-4.56-3.49c-1.25-1.41-2.06-5.35-2.12-6.2c-0.06-0.85 1.19-4.85 1.62-5.92c0.44-1.07-0.33-1.81-0.7-3.33c-0.25-1 2.58-3.21 2.08-2.31c-0.5 0.9 0.88 3.19 1.56 3.04c3.6-0.75 5.74-4.8 6.37-6.54c0.82-2.26-0.37-5.13-0.37-5.13c2.01-0.19 4.19 2.57 5.12 5.08c0.93 2.51-3.1 6.05-0.52 6.29c2.58 0.23 4.49 3.63 4.95 4.56c0.46 0.93 0 3.82-0.41 4.89c-0.41 1.07-2.22 2.61-5.47 2.65c-3.25 0.05-3.04-3.12-2.27-3.26c0.77-0.14 1.24-1.91 0.77-2.47c-0.46-0.56-2.47-0.46-3.1 0.28c-0.34 0.4-2.27 3.03-0.67 6.19c1.6 3.17 6.49 2.85 7.07 2.25c0.67-0.68 1.46 0.08 4.64-1.51c2.69-1.34 3.66-4.8 3.71-5.64c0.05-0.84-0.36-2.61-2.42-4.84c-2.06-2.24-0.46-5.82 0.77-7.03c1.24-1.21 2.06-3.63 1.75-4.28c-0.31-0.65-2.92-1.29-2.81-0.1c0.14 1.48-2.6 2.43-4.05 1.78c-1.44-0.65-1.75-3.49-1.55-4.05c0.21-0.56 1.14-2.47 3.77-2.84c2.63-0.37 3.97 2.75 4.18 3.21c0.21 0.47 1.14 0.14 1.03-0.65c-0.1-0.79 0.88-3.4 1.39-4.01c0.52-0.61 2.17-0.84 2.12-1.72c-0.03-0.53 0.61-1.96 1.12-3.01v-1.23c0 0 0.13 0.24 0.31 0.6c0.18-0.36 0.31-0.6 0.31-0.6v1.23c0.51 1.05 1.15 2.48 1.12 3.01c-0.05 0.88 1.6 1.12 2.12 1.72c0.52 0.61 1.5 3.21 1.39 4.01c-0.1 0.79 0.83 1.12 1.03 0.65c0.21-0.47 1.55-3.59 4.18-3.21c2.63 0.37 3.56 2.28 3.77 2.84c0.21 0.56-0.1 3.4-1.55 4.05c-1.44 0.65-4.18-0.3-4.05-1.78c0.11-1.19-2.51-0.55-2.81 0.1c-0.31 0.65 0.52 3.07 1.75 4.28c1.24 1.21 2.84 4.8 0.77 7.03c-2.06 2.24-2.48 4.01-2.42 4.84c0.05 0.84 1.03 4.3 3.71 5.64c3.19 1.59 3.98 0.83 4.64 1.51c0.58 0.6 5.47 0.91 7.07-2.25c1.6-3.17-0.33-5.79-0.67-6.19c-0.62-0.74-2.63-0.84-3.1-0.28c-0.46 0.56 0 2.33 0.77 2.47c0.77 0.14 0.98 3.31-2.27 3.26c-3.25-0.05-5.06-1.58-5.47-2.65c-0.41-1.07-0.88-3.96-0.41-4.89c0.46-0.93 2.37-4.33 4.95-4.56c2.58-0.23-1.44-3.77-0.52-6.29c0.93-2.51 3.11-5.27 5.12-5.08c0 0-1.2 2.87-0.37 5.13c0.63 1.74 2.77 5.78 6.37 6.54c0.68 0.14 2.06-2.14 1.56-3.04c-0.5-0.9 2.32 1.3 2.08 2.31c-0.37 1.52-1.14 2.26-0.7 3.33z" />
	<path id="sides" class="s4" d="m21.95 305.21c-1.99-4.38-5.5-5.83-3.16-7.25c1.87-1.14 3.17-6.02 3.62-7.92c-0.16-0.2-0.31-0.45-0.46-0.77c-1.66-3.65-4.37-5.27-3.87-6.52c-0.17-0.52 0-0.96 0.71-1.39c2.13-1.29 3.52-7.41 3.75-8.52c-0.21-0.22-0.41-0.53-0.6-0.95c-1.66-3.65-4.37-5.27-3.87-6.52c-0.17-0.52 0-0.96 0.71-1.39c1.73-1.05 2.97-5.28 3.5-7.42c-0.12-0.17-0.23-0.36-0.34-0.6c-1.66-3.65-4.37-5.27-3.87-6.52c-0.17-0.52 0-0.96 0.71-1.39c2.34-1.42 3.79-8.69 3.79-8.69l3.79 5.8l-0.23 0.32l0.23 0.35l-2.84 3.92l3.48 2.66c0 0-0.08 0.19-0.23 0.5l0.23 0.17c0 0-1.53 3.62-3.13 4.2l2.5 3.82l-0.23 0.32l0.23 0.35l-2.84 3.92l3.48 2.66c0 0-0.08 0.19-0.23 0.5l0.23 0.17c0 0-2.24 5.31-4.13 4.12l3.5 5.35l-0.23 0.32l0.23 0.35l-2.84 3.92l3.48 2.66c0 0-0.08 0.19-0.23 0.5l0.23 0.17c0 0-1.78 4.22-3.51 4.29l2.88 4.41l-3.16 4.35l3.79 2.9c0 0-3.07 7.28-5.05 2.9zm0-67.33c-1.99-4.38-5.5-5.83-3.16-7.25c1.87-1.14 3.17-6.02 3.62-7.92c-0.16-0.2-0.31-0.45-0.46-0.77c-1.99-4.38-5.5-5.83-3.16-7.25c1.98-1.2 3.32-6.59 3.69-8.22c-0.18-0.22-0.36-0.5-0.53-0.87c-1.99-4.38-5.5-5.83-3.16-7.25c2.34-1.42 3.79-8.69 3.79-8.69l3.79 5.8l-3.16 4.35l3.79 2.9c0 0-1.98 4.7-3.79 4.27l3.16 4.83l-3.16 4.35l3.79 2.9c0 0-1.78 4.22-3.51 4.29l2.88 4.41l-3.16 4.35l3.79 2.9c0 0-3.07 7.28-5.05 2.9zm0-49.67c-1.99-4.38-5.5-5.83-3.16-7.25c1.87-1.14 3.17-6.02 3.62-7.92c-0.16-0.2-0.31-0.45-0.46-0.77c-1.99-4.38-5.5-5.83-3.16-7.25c2.34-1.42 3.79-8.69 3.79-8.69l3.79 5.8l-3.16 4.35l3.79 2.9c0 0-1.78 4.22-3.51 4.29l2.88 4.41l-3.16 4.35l3.79 2.9c0 0-3.07 7.28-5.05 2.9zm0-33.33c-1.99-4.38-5.5-5.83-3.16-7.25c1.87-1.14 3.17-6.02 3.62-7.92c-0.16-0.2-0.31-0.45-0.46-0.77c-1.99-4.38-5.5-5.83-3.16-7.25c1.98-1.2 3.32-6.59 3.69-8.22c-0.18-0.22-0.36-0.5-0.53-0.87c-1.99-4.38-5.5-5.83-3.16-7.25c2.34-1.42 3.79-8.69 3.79-8.69l3.79 5.8l-3.16 4.35l3.79 2.9c0 0-1.98 4.7-3.79 4.27l3.16 4.83l-3.16 4.35l3.79 2.9c0 0-1.78 4.22-3.51 4.29l2.88 4.41l-3.16 4.35l3.79 2.9c0 0-3.07 7.28-5.05 2.9zm0-49.67c-1.99-4.38-5.5-5.83-3.16-7.25c1.87-1.14 3.17-6.02 3.62-7.92c-0.16-0.2-0.31-0.45-0.46-0.77c-1.99-4.38-5.5-5.83-3.16-7.25c2.34-1.42 3.79-8.69 3.79-8.69l3.79 5.8l-3.16 4.35l3.79 2.9c0 0-1.78 4.22-3.51 4.29l2.88 4.41l-3.16 4.35l3.79 2.9c0 0-3.07 7.28-5.05 2.9zm0-33.33c-1.99-4.38-5.5-5.83-3.16-7.25c1.87-1.14 3.17-6.02 3.62-7.92c-0.16-0.2-0.31-0.45-0.46-0.77c-1.99-4.38-5.5-5.83-3.16-7.25c2.34-1.42 3.79-8.69 3.79-8.69l3.79 5.8l-3.16 4.35l3.79 2.9c0 0-1.78 4.22-3.51 4.29l2.88 4.41l-3.16 4.35l3.79 2.9c0 0-3.07 7.28-5.05 2.9zm-3.16 243.47c2.34-1.42 3.79-8.69 3.79-8.69l3.79 5.8l-3.16 4.35l3.79 2.9c0 0-3.07 7.28-5.05 2.9c-1.99-4.38-5.5-5.83-3.16-7.25zm204.21-13.04l3.79-2.9l-3.16-4.35l2.88-4.41c-1.73-0.06-3.51-4.29-3.51-4.29l0.23-0.17c-0.14-0.3-0.23-0.5-0.23-0.5l3.48-2.66l-2.84-3.92l0.23-0.35l-0.23-0.32l3.5-5.35c-1.89 1.19-4.13-4.12-4.13-4.12l0.23-0.17c-0.14-0.3-0.23-0.5-0.23-0.5l3.48-2.66l-2.84-3.92l0.23-0.35l-0.23-0.32l2.5-3.82c-1.6-0.59-3.13-4.2-3.13-4.2l0.23-0.17c-0.15-0.3-0.23-0.5-0.23-0.5l3.48-2.66l-2.84-3.92l0.23-0.35l-0.23-0.32l3.79-5.8c0 0 1.45 7.28 3.79 8.69c0.72 0.43 0.88 0.87 0.71 1.39c0.5 1.26-2.22 2.87-3.87 6.52c-0.11 0.24-0.22 0.43-0.34 0.6c0.53 2.15 1.77 6.38 3.5 7.42c0.72 0.43 0.88 0.87 0.71 1.39c0.5 1.26-2.22 2.87-3.87 6.52c-0.19 0.42-0.39 0.73-0.6 0.95c0.24 1.11 1.63 7.23 3.75 8.52c0.72 0.43 0.88 0.87 0.71 1.39c0.5 1.26-2.22 2.87-3.87 6.52c-0.15 0.33-0.3 0.57-0.46 0.77c0.45 1.91 1.75 6.79 3.62 7.92c2.34 1.42-1.17 2.86-3.16 7.25c-1.99 4.38-5.05-2.9-5.05-2.9zm5.05-64.43c1.99-4.38 5.5-5.83 3.16-7.25c-1.87-1.14-3.17-6.02-3.62-7.92c0.16-0.2 0.31-0.45 0.46-0.77c1.99-4.38 5.5-5.83 3.16-7.25c-1.98-1.2-3.32-6.59-3.69-8.22c0.18-0.22 0.36-0.5 0.53-0.87c1.99-4.38 5.5-5.83 3.16-7.25c-2.34-1.42-3.79-8.69-3.79-8.69l-3.79 5.8l3.16 4.35l-3.79 2.9c0 0 1.98 4.7 3.79 4.27l-3.16 4.83l3.16 4.35l-3.79 2.9c0 0 1.78 4.22 3.51 4.29l-2.88 4.41l3.16 4.35l-3.79 2.9c0 0 3.07 7.28 5.05 2.9zm0-49.67c1.99-4.38 5.5-5.83 3.16-7.25c-1.87-1.14-3.17-6.02-3.62-7.92c0.16-0.2 0.31-0.45 0.46-0.77c1.99-4.38 5.5-5.83 3.16-7.25c-2.34-1.42-3.79-8.69-3.79-8.69l-3.79 5.8l3.16 4.35l-3.79 2.9c0 0 1.78 4.22 3.51 4.29l-2.88 4.41l3.16 4.35l-3.79 2.9c0 0 3.07 7.28 5.05 2.9zm0-33.33c1.99-4.38 5.5-5.83 3.16-7.25c-1.87-1.14-3.17-6.02-3.62-7.92c0.16-0.2 0.31-0.45 0.46-0.77c1.99-4.38 5.5-5.83 3.16-7.25c-1.98-1.2-3.32-6.59-3.69-8.22c0.18-0.22 0.36-0.5 0.53-0.87c1.99-4.38 5.5-5.83 3.16-7.25c-2.34-1.42-3.79-8.69-3.79-8.69l-3.79 5.8l3.16 4.35l-3.79 2.9c0 0 1.98 4.7 3.79 4.27l-3.16 4.83l3.16 4.35l-3.79 2.9c0 0 1.78 4.22 3.51 4.29l-2.88 4.41l3.16 4.35l-3.79 2.9c0 0 3.07 7.28 5.05 2.9zm0-49.67c1.99-4.38 5.5-5.83 3.16-7.25c-1.87-1.14-3.17-6.02-3.62-7.92c0.16-0.2 0.31-0.45 0.46-0.77c1.99-4.38 5.5-5.83 3.16-7.25c-2.34-1.42-3.79-8.69-3.79-8.69l-3.79 5.8l3.16 4.35l-3.79 2.9c0 0 1.78 4.22 3.51 4.29l-2.88 4.41l3.16 4.35l-3.79 2.9c0 0 3.07 7.28 5.05 2.9zm0-33.33c1.99-4.38 5.5-5.83 3.16-7.25c-1.87-1.14-3.17-6.02-3.62-7.92c0.16-0.2 0.31-0.45 0.46-0.77c1.99-4.38 5.5-5.83 3.16-7.25c-2.34-1.42-3.79-8.69-3.79-8.69l-3.79 5.8l3.16 4.35l-3.79 2.9c0 0 1.78 4.22 3.51 4.29l-2.88 4.41l3.16 4.35l-3.79 2.9c0 0 3.07 7.28 5.05 2.9zm3.16 243.47c-2.34-1.42-3.79-8.69-3.79-8.69l-3.79 5.8l3.16 4.35l-3.79 2.9c0 0 3.07 7.28 5.05 2.9c1.99-4.38 5.5-5.83 3.16-7.25z" />
	<path id="sky-rocks" class="s5" d="m157.66 151.82c0 4.58-0.89 8.97-2.67 13.15c-1.78 4.18-4.17 7.78-7.18 10.8c-3.01 3.02-6.59 5.43-10.75 7.21c-4.16 1.79-8.52 2.68-13.08 2.68c-4.56 0-8.92-0.89-13.08-2.68c-4.16-1.79-7.74-4.19-10.75-7.21c-3.01-3.02-5.4-6.62-7.18-10.8c-1.78-4.18-2.67-8.56-2.67-13.15c0-5.59 1.26-10.81 3.8-15.66c2.53-4.85 5.99-8.84 10.39-11.97c4.4-3.14 9.29-5.09 14.67-5.87v9.82c-5.54 1.13-10.13 3.92-13.77 8.35c-3.65 4.43-5.47 9.54-5.47 15.34c0 3.27 0.64 6.4 1.92 9.39c1.28 2.98 2.99 5.55 5.13 7.71c2.14 2.15 4.7 3.87 7.67 5.16c2.97 1.28 6.08 1.93 9.34 1.93c3.26 0 6.37-0.64 9.34-1.93c2.97-1.28 5.52-3 7.67-5.16c2.14-2.15 3.85-4.72 5.13-7.71c1.28-2.98 1.92-6.11 1.92-9.39c0-5.79-1.82-10.9-5.47-15.34c-3.65-4.43-8.24-7.21-13.77-8.35v-9.82c5.39 0.78 10.28 2.74 14.67 5.87c4.4 3.14 7.86 7.13 10.39 11.97c2.53 4.85 3.8 10.07 3.8 15.66z" />
	<path id="moc" class="s6" d="m96.72 168.51c-3.44-5.28-5.19-11.05-5.27-17.32c-0.07-6.27 1.55-12.02 4.89-17.25c2.32-3.64 5.26-6.66 8.83-9.05c3.57-2.39 7.34-4 11.33-4.85c3.99-0.84 8.12-0.9 12.41-0.16c4.29 0.73 8.29 2.28 12.01 4.65c3.64 2.32 6.7 5.21 9.17 8.67c2.47 3.46 4.18 7.11 5.15 10.96c0.96 3.85 1.17 7.84 0.62 11.99c-0.55 4.15-1.89 8.05-4.02 11.71c-0.61 1.06-1.53 1.47-2.75 1.25c-1.24-0.2-1.99-0.92-2.24-2.16c-0.58-3.19-1.76-6.1-3.55-8.74c-1.79-2.63-4.05-4.82-6.79-6.57c-3.52-2.25-7.32-3.47-11.38-3.66c-4.06-0.19-7.89 0.61-11.49 2.43c-3.6 1.81-6.5 4.44-8.7 7.9c-1.76 2.75-2.84 5.8-3.27 9.14c-0.18 1.23-0.87 1.97-2.07 2.23c-0.54 0.11-1.08 0.06-1.61-0.16c-0.53-0.22-0.95-0.56-1.26-1.02z" />
	<path id="ignia" class="s7" d="m126.23 175.51c-0.78 0.94-1.7 1.41-2.76 1.41c-1.06 0-1.98-0.47-2.76-1.41l-27.46-33.32c-0.78-0.94-1.16-2.06-1.16-3.35c0-1.29 0.39-2.41 1.16-3.35c0.78-0.94 1.7-1.41 2.76-1.41h54.92c1.06 0 1.98 0.47 2.76 1.41c0.78 0.94 1.16 2.06 1.16 3.35c0 1.29-0.39 2.4-1.16 3.35l-27.46 33.32v0z" />
	<path id="sky2" class="s5" d="m157.66 151.82c0 4.58-0.89 8.97-2.67 13.15c-1.78 4.18-4.17 7.78-7.18 10.8c-3.01 3.02-6.59 5.43-10.75 7.21c-4.16 1.79-8.52 2.68-13.08 2.68c-4.56 0-8.92-0.89-13.08-2.68c-4.16-1.79-7.74-4.19-10.75-7.21c-3.01-3.02-5.4-6.62-7.18-10.8c-1.78-4.18-2.67-8.56-2.67-13.15c0-5.59 1.26-10.81 3.8-15.66c2.53-4.85 5.99-8.84 10.39-11.97c4.4-3.14 9.29-5.09 14.67-5.87v9.82c-5.54 1.13-10.13 3.92-13.77 8.35c-3.65 4.43-5.47 9.54-5.47 15.34c0 3.27 0.64 6.4 1.92 9.39c1.28 2.98 2.99 5.55 5.13 7.71c2.14 2.15 4.7 3.87 7.67 5.16c2.97 1.28 6.08 1.93 9.34 1.93c3.26 0 6.37-0.64 9.34-1.93c2.97-1.28 5.52-3 7.67-5.16c2.14-2.15 3.85-4.72 5.13-7.71c1.28-2.98 1.92-6.11 1.92-9.39c0-5.79-1.82-10.9-5.47-15.34c-3.65-4.43-8.24-7.21-13.77-8.35v-9.82c5.39 0.78 10.28 2.74 14.67 5.87c4.4 3.14 7.86 7.13 10.39 11.97c2.53 4.85 3.8 10.07 3.8 15.66z" />
	<path id="moc2" class="s8" d="m155.31 152.59c-0.1 6.3-1.86 12.06-5.3 17.3c-3.44 5.24-8 9.1-13.68 11.58c-3.96 1.72-8.08 2.58-12.38 2.57c-4.29-0.01-8.33-0.78-12.1-2.31c-3.78-1.53-7.24-3.79-10.39-6.79c-3.15-3-5.6-6.52-7.36-10.56c-1.73-3.96-2.65-8.07-2.76-12.31c-0.11-4.25 0.5-8.24 1.85-11.97c1.35-3.73 3.41-7.16 6.18-10.29c2.77-3.13 6.07-5.62 9.88-7.47c1.09-0.54 2.09-0.37 2.98 0.5c0.92 0.86 1.14 1.88 0.65 3.04c-1.3 2.97-1.95 6.05-1.93 9.23c0.01 3.18 0.67 6.26 1.97 9.24c1.67 3.83 4.14 6.96 7.4 9.39c3.26 2.43 6.89 3.9 10.89 4.41c4 0.51 7.87-0.06 11.63-1.69c2.99-1.3 5.6-3.23 7.82-5.76c0.84-0.92 1.82-1.15 2.96-0.69c0.51 0.21 0.93 0.55 1.24 1.03c0.31 0.48 0.47 1 0.47 1.55z" />
	<path id="sky3" class="s5" d="m157.66 151.82c0 4.58-0.89 8.97-2.67 13.15c-1.78 4.18-4.17 7.78-7.18 10.8c-3.01 3.02-6.59 5.43-10.75 7.21c-4.16 1.79-8.52 2.68-13.08 2.68c-4.56 0-8.92-0.89-13.08-2.68c-4.16-1.79-7.74-4.19-10.75-7.21c-3.01-3.02-5.4-6.62-7.18-10.8c-1.78-4.18-2.67-8.56-2.67-13.15c0-5.59 1.26-10.81 3.8-15.66c2.53-4.85 5.99-8.84 10.39-11.97c4.4-3.14 9.29-5.09 14.67-5.87v9.82c-5.54 1.13-10.13 3.92-13.77 8.35c-3.65 4.43-5.47 9.54-5.47 15.34c0 3.27 0.64 6.4 1.92 9.39c1.28 2.98 2.99 5.55 5.13 7.71c2.14 2.15 4.7 3.87 7.67 5.16c2.97 1.28 6.08 1.93 9.34 1.93c3.26 0 6.37-0.64 9.34-1.93c2.97-1.28 5.52-3 7.67-5.16c2.14-2.15 3.85-4.72 5.13-7.71c1.28-2.98 1.92-6.11 1.92-9.39c0-5.79-1.82-10.9-5.47-15.34c-3.65-4.43-8.24-7.21-13.77-8.35v-9.82c5.39 0.78 10.28 2.74 14.67 5.87c4.4 3.14 7.86 7.13 10.39 11.97c2.53 4.85 3.8 10.07 3.8 15.66z" />
	<path id="ignia3" class="s8" d="m126.23 154.51c-0.78 0.94-1.7 1.41-2.76 1.41c-1.06 0-1.98-0.47-2.76-1.41l-27.46-33.32c-0.78-0.94-1.16-2.06-1.16-3.35c0-1.29 0.39-2.41 1.16-3.35c0.78-0.94 1.7-1.41 2.76-1.41h54.92c1.06 0 1.98 0.47 2.76 1.41c0.78 0.94 1.16 2.06 1.16 3.35c0 1.29-0.39 2.4-1.16 3.35l-27.46 33.32v0z" />
	<path id="sky4" class="s5" d="m157.66 140.82c0 4.58-0.89 8.97-2.67 13.15c-1.78 4.18-4.17 7.78-7.18 10.8c-3.01 3.02-6.59 5.43-10.75 7.21c-4.16 1.79-8.52 2.68-13.08 2.68c-4.56 0-8.92-0.89-13.08-2.68c-4.16-1.79-7.74-4.19-10.75-7.21c-3.01-3.02-5.4-6.62-7.18-10.8c-1.78-4.18-2.67-8.56-2.67-13.15c0-5.59 1.26-10.81 3.8-15.66c2.53-4.85 5.99-8.84 10.39-11.97c4.4-3.14 9.29-5.09 14.67-5.87v9.82c-5.54 1.13-10.13 3.92-13.77 8.35c-3.65 4.43-5.47 9.54-5.47 15.34c0 3.27 0.64 6.4 1.92 9.39c1.28 2.98 2.99 5.55 5.13 7.71c2.14 2.15 4.7 3.87 7.67 5.16c2.97 1.28 6.08 1.93 9.34 1.93c3.26 0 6.37-0.64 9.34-1.93c2.97-1.28 5.52-3 7.67-5.16c2.14-2.15 3.85-4.72 5.13-7.71c1.28-2.98 1.92-6.11 1.92-9.39c0-5.79-1.82-10.9-5.47-15.34c-3.65-4.43-8.24-7.21-13.77-8.35v-9.82c5.39 0.78 10.28 2.74 14.67 5.87c4.4 3.14 7.86 7.13 10.39 11.97c2.53 4.85 3.8 10.07 3.8 15.66z" />
	<path id="ignia4" class="s8" d="m126.23 190.51c-0.78 0.94-1.7 1.41-2.76 1.41c-1.06 0-1.98-0.47-2.76-1.41l-27.46-33.32c-0.78-0.94-1.16-2.06-1.16-3.35c0-1.29 0.39-2.41 1.16-3.35c0.78-0.94 1.7-1.41 2.76-1.41h54.92c1.06 0 1.98 0.47 2.76 1.41c0.78 0.94 1.16 2.06 1.16 3.35c0 1.29-0.39 2.4-1.16 3.35l-27.46 33.32v0z" />
	<path id="lighted" class="s9" d="m14 34h220v279c0 0-99.93-81-109.9-81c-10.03 0-110.1 81-110.1 81v-279z" />
</svg>