<svg version="1.2" baseProfile="tiny-ps" xmlns="http://www.w3.org/2000/svg" viewBox="0 0 71 50" width="71" height="50">
	<title>seamoon.svg</title>
	<style>
		tspan { white-space:pre } 
		.s1 { fill: #2dddc6 } 
	</style>
	
	<path id="seamoon" class="s1" d="m47.67 30.71c-0.91 2.61-2.47 4.77-4.67 6.47c-2.2 1.7-4.7 2.66-7.49 2.88c-1.94 0.15-3.84-0.08-5.68-0.69c-1.85-0.62-3.48-1.51-4.89-2.69c-1.41-1.18-2.59-2.62-3.53-4.32c-0.94-1.7-1.51-3.52-1.71-5.46c-0.2-1.9-0.03-3.74 0.51-5.53c0.54-1.79 1.35-3.37 2.45-4.73c1.1-1.36 2.46-2.5 4.08-3.41c1.63-0.91 3.39-1.48 5.28-1.71c0.55-0.07 0.95 0.14 1.21 0.64c0.28 0.49 0.23 0.95-0.14 1.36c-0.97 1.05-1.67 2.25-2.11 3.58c-0.43 1.33-0.58 2.71-0.43 4.14c0.19 1.84 0.82 3.5 1.89 4.98c1.07 1.48 2.43 2.61 4.08 3.39c1.65 0.78 3.4 1.1 5.24 0.95c1.47-0.12 2.86-0.55 4.16-1.29c0.49-0.26 0.94-0.22 1.37 0.14c0.19 0.16 0.32 0.36 0.39 0.61c0.07 0.25 0.07 0.48-0.01 0.71z" />
</svg>