<svg version="1.2" baseProfile="tiny-ps" xmlns="http://www.w3.org/2000/svg" viewBox="0 0 71 50" width="71" height="50">
	<title>iconhighfields</title>
	<style>
		tspan { white-space:pre }
		.s0 { fill: #2f2f2f } 
		.s1 { fill: #3eaf11 } 
	</style>
	<path id="sky" class="s0" d="m49 25.42c0 1.97-0.38 3.86-1.15 5.66c-0.77 1.8-1.8 3.35-3.09 4.65c-1.29 1.3-2.84 2.34-4.63 3.11c-1.79 0.77-3.67 1.16-5.63 1.16c-1.96 0-3.84-0.39-5.63-1.16c-1.79-0.77-3.33-1.81-4.63-3.11c-1.29-1.3-2.33-2.85-3.09-4.65c-0.77-1.8-1.15-3.69-1.15-5.66c0-2.41 0.54-4.66 1.63-6.74c1.09-2.09 2.58-3.81 4.47-5.16c1.89-1.35 4-2.19 6.32-2.53v4.23c-2.38 0.49-4.36 1.69-5.93 3.6c-1.57 1.91-2.35 4.11-2.35 6.6c0 1.41 0.28 2.76 0.83 4.04c0.55 1.29 1.29 2.39 2.21 3.32c0.92 0.93 2.02 1.67 3.3 2.22c1.28 0.55 2.62 0.83 4.02 0.83c1.4 0 2.74-0.28 4.02-0.83c1.28-0.55 2.38-1.29 3.3-2.22c0.92-0.93 1.66-2.03 2.21-3.32c0.55-1.29 0.83-2.63 0.83-4.04c0-2.49-0.78-4.7-2.35-6.6c-1.57-1.91-3.55-3.11-5.93-3.6v-4.23c2.32 0.34 4.43 1.18 6.32 2.53c1.89 1.35 3.38 3.07 4.47 5.16c1.09 2.09 1.63 4.34 1.63 6.74z" />
	<path id="moon" class="s1" d="m47.67 30.71c-0.91 2.61-2.47 4.77-4.67 6.47c-2.2 1.7-4.7 2.66-7.49 2.88c-1.94 0.15-3.84-0.08-5.68-0.69c-1.85-0.62-3.48-1.51-4.89-2.69c-1.41-1.18-2.59-2.62-3.53-4.32c-0.94-1.7-1.51-3.52-1.71-5.46c-0.2-1.9-0.03-3.74 0.51-5.53c0.54-1.79 1.35-3.37 2.45-4.73c1.1-1.36 2.46-2.5 4.08-3.41c1.63-0.91 3.39-1.48 5.28-1.71c0.55-0.07 0.95 0.14 1.21 0.64c0.28 0.49 0.23 0.95-0.14 1.36c-0.97 1.05-1.67 2.25-2.11 3.58c-0.43 1.33-0.58 2.71-0.43 4.14c0.19 1.84 0.82 3.5 1.89 4.98c1.07 1.48 2.43 2.61 4.08 3.39c1.65 0.78 3.4 1.1 5.24 0.95c1.47-0.12 2.86-0.55 4.16-1.29c0.49-0.26 0.94-0.22 1.37 0.14c0.19 0.16 0.32 0.36 0.39 0.61c0.07 0.25 0.07 0.48-0.01 0.71z" />
</svg>