<svg version="1.2" baseProfile="tiny-ps" xmlns="http://www.w3.org/2000/svg" viewBox="0 0 71 50" width="71" height="50">
	<title>iconskyroks</title>
	<style>
		tspan { white-space:pre }
		.s0 { fill: #2f2f2f } 
	</style>
	<path id="skyroks" class="s0" d="m51 25.42c0 1.97-0.38 3.86-1.15 5.66c-0.77 1.8-1.8 3.35-3.09 4.65c-1.29 1.3-2.84 2.34-4.63 3.11c-1.79 0.77-3.67 1.16-5.63 1.16c-1.96 0-3.84-0.39-5.63-1.16c-1.79-0.77-3.33-1.81-4.63-3.11c-1.29-1.3-2.33-2.85-3.09-4.65c-0.77-1.8-1.15-3.69-1.15-5.66c0-2.41 0.54-4.66 1.63-6.74c1.09-2.09 2.58-3.81 4.47-5.16c1.89-1.35 4-2.19 6.32-2.53v4.23c-2.38 0.49-4.36 1.69-5.93 3.6c-1.57 1.91-2.35 4.11-2.35 6.6c0 1.41 0.28 2.76 0.83 4.04c0.55 1.29 1.29 2.39 2.21 3.32c0.92 0.93 2.02 1.67 3.3 2.22c1.28 0.55 2.62 0.83 4.02 0.83c1.4 0 2.74-0.28 4.02-0.83c1.28-0.55 2.38-1.29 3.3-2.22c0.92-0.93 1.66-2.03 2.21-3.32c0.55-1.29 0.83-2.63 0.83-4.04c0-2.49-0.78-4.7-2.35-6.6c-1.57-1.91-3.55-3.11-5.93-3.6v-4.23c2.32 0.34 4.43 1.18 6.32 2.53c1.89 1.35 3.38 3.07 4.47 5.16c1.09 2.09 1.63 4.34 1.63 6.74z" />
</svg>