<svg version="1.2" baseProfile="tiny-ps" xmlns="http://www.w3.org/2000/svg" viewBox="0 0 71 50" width="71" height="50">
	<title>icondark</title>
	<style>
		tspan { white-space:pre }
		.s0 { fill: #6a0505 } 
	</style>
	<path id="darkclan" class="s0" d="m44.47 14.93l8.53-3.36l-8.04 6.45l2.46 6.17l-1.31 3.08l-1.97-0.56l1.48 1.96h-1.81l1.31 1.4l-1.81 0.56l1.64 5.89l-1.81 4.49l-1.15-1.12l-2.3-1.96l0.16-6.45l2.3-5.33l-2.63-0.56l1.64-2.8l3.28 0.56l-1.31-4.77l-3.94 1.4l-0.82 4.21l-0.66 0.56v-9.53l3.12-2.8v1.4l4.59-2.8l-1.48 2.52l0.49 1.4zm-9.68 5.05l-3.94-1.4l-1.31 4.77l3.28-0.56l1.64 2.8l-2.63 0.56l2.3 5.33l0.16 6.45l-2.3 1.96l-1.15 1.12l-1.81-4.49l1.64-5.89l-1.81-0.56l1.31-1.4h-1.81l1.48-1.96l-1.97 0.56l-1.31-3.08l2.46-6.17l-8.04-6.45l8.53 3.36l0.49-1.4l-1.48-2.52l4.59 2.8v-1.4l3.12 2.8v9.53l-0.66-0.56l-0.82-4.21z" />
</svg>