<svg version="1.2" baseProfile="tiny-ps" xmlns="http://www.w3.org/2000/svg" viewBox="0 0 71 50" width="71" height="50">
	<title>iconmoonaboveclouds</title>
	<style>
		tspan { white-space:pre }
		.s0 { fill: #e26d04 } 
	</style>
	<path id="moonaboveclouds" class="s0" d="m23.42 36.16c-1.57-2.28-2.38-4.81-2.44-7.59c-0.06-2.78 0.65-5.36 2.12-7.74c1.03-1.66 2.34-3.04 3.93-4.17c1.59-1.12 3.28-1.9 5.07-2.35c1.79-0.44 3.64-0.54 5.57-0.29c1.93 0.25 3.73 0.87 5.41 1.86c1.65 0.97 3.03 2.2 4.15 3.69c1.12 1.49 1.91 3.08 2.36 4.78c0.45 1.69 0.56 3.46 0.33 5.31c-0.23 1.85-0.81 3.61-1.76 5.27c-0.27 0.48-0.68 0.68-1.23 0.6c-0.56-0.07-0.9-0.38-1.01-0.92c-0.27-1.41-0.82-2.68-1.63-3.82c-0.81-1.14-1.84-2.07-3.08-2.8c-1.59-0.94-3.3-1.41-5.13-1.43c-1.83-0.02-3.54 0.41-5.15 1.27c-1.61 0.87-2.9 2.08-3.87 3.65c-0.78 1.25-1.25 2.62-1.43 4.11c-0.08 0.55-0.38 0.89-0.92 1.02c-0.24 0.06-0.48 0.05-0.72-0.04c-0.24-0.09-0.43-0.23-0.57-0.43z" />
</svg>