<svg class="loading" version="1.2" baseProfile="tiny-ps" xmlns="http://www.w3.org/2000/svg" viewBox="0 0 300 300" width="300" height="300" style="filter:drop-shadow(0 3px 21px #999);">
	<title>Loading Pwchies</title>

	<style>
		tspan { white-space:pre }
		.s0 { fill: #f2e1a8 } 
		.s1 { opacity: .1;fill: #000000 } 
		.s2 { opacity: 0;fill: #000000 } 
		.s3 { fill: #000000 } 
		.s4 { fill: #de1dbc } 
		.s5 { fill: #bab3b3 } 
		.s6 { fill: #e82323 } 
		.s7 { fill: #ffffff } 
		.t8 { font-size: 50px;fill: #363636;font-family: -apple-system, BlinkMacSystemFont, Segoe UI, Roboto, Helvetica Neue, Arial, sans-serif, Apple Color Emoji, Segoe UI Emoji, Segoe UI Symbol; font-weight:700;} 
                .t9 { font-size: 20px;fill: #363636;font-family: -apple-system, BlinkMacSystemFont, Segoe UI, Roboto, Helvetica Neue, Arial, sans-serif, Apple Color Emoji, Segoe UI Emoji, Segoe UI Symbol; font-weight:700;} 
		.s9 { opacity: 1;fill: #de1dbc }
svg.loading{opacity:1;animation:Reveal 15s 1;transform:scale(1);tramsform-origin:center center;} 
/*** Mouth ***/
#m1,#m2,#m3{transform:translateY(0);transform-origin:bottom center; animation:Lough 8s infinite;}
/*** Eyes ***/
#eyes1,#eyes2{}
.doeyes{animation: Blink 8s infinite;transform:scaleY(1);transform-origin:center center;}
@keyframes Lough{
0%{transform:translateY(0);}
5%{transform:translateY(-5px);}
8%{transform:translateY(3px);}
11%{transform:translateY(-4px);}
13%{transform:translateY(0);}
15%{transform:translateY(-5px);}
18%{transform:translateY(3px);}
21%{transform:translateY(-4px);}
22%{transform:translateY(0);}
100%{transform:translateY(0);}
}
@keyframes Blink{
0%{transform:scaleY(1);}
2%{transform:scaleY(.4) translateY(-8px);}
3%{transform:scaleY(1) translateY(0);}
10%{transform:scaleY(1);}
29%{transform:scaleY(1);}
30%{transform:scaleY(.4) translateY(-8px);}
31%{transform:scaleY(1);}
100%{transform:scaleY(1);}
}
.shape{opacity:1;}
#l1,#l2,#l3,#l4{animation: Moveit 2s infinite;opacity:0;tramsform-origin:center;}
#l1{animation-delay:0s;transform:translate(75px,72px) rotate(0);}
#l2{animation-delay:1s;transform:translate(100px,72px) rotate(0);}
#l3{animation-delay:2s;transform:translate(125px,72px) rotate(0);}
#l4{animation-delay:3s;transform:translate(150px,72px) rotate(0);}
@keyframes Moveit{
0%{transform:translate(130px,72px) rotate(0);opacity:1;}
100%{transform:translate(150px,150px) rotate(-360deg) scale(.6);opacity:.7;}
}
#head{}
@keyframes Reveal{
0%{transform:scale(.1);opacity:0;}
5%{transform:scale(1.06);opacity:1;}
6.5%{transform:scale(1);opacity:1;}
8%{transform:scale(1);opacity:1;}
100%{transform:scale(1);opacity:1;}
}
	</style>
	<path id="head" class="s0" d="m150.5 59c38.94 0 70.5 31.56 70.5 70.5c0 38.94-31.56 70.5-70.5 70.5c-38.94 0-70.5-31.56-70.5-70.5c0-38.94 31.56-70.5 70.5-70.5z" />
	<path id="hairshadow" fill-rule="evenodd" class="s1" d="m158 61c37.94-0.99 60.36 26.22 67 56c6.98 31.3-34.58 86.36-63 76c0.67 0 1.33 0 2 0c15.87-13.9 46.57-27 46-61c-4.72 3.45-7.31 6.06-15 7c13.51-21.19 5.36-48.18-12-61c-10.39 1.36-14.31 6.22-20 12c-10.77 0.29-15.86-2.13-22-6c0-0.33 0-0.67 0-1c2.09-12.26 9.32-15.57 17-22z" />
	<path id="freza" fill-rule="evenodd" class="s2" d="m137 61c7.34 0.01 6.12 0.25 10 3c0 0.33 0 0.67 0 1c0.22 12.86 4.11 9.01-1 16c-0.36 3.36-28.31 9.38-39 1c0.33-0.67-4.33-3.33-4-4c6.44-5.09 11.38-8.85 18.16-11.78c5.27-2.28 11.68-4.51 15.84-5.22z" />
	<path id="hair1" fill-rule="evenodd" class="s3" d="m109 20c19.76 0.04 28.19 7.52 39 9c6.69 0.92 18-7.62 27-9c-5.27 5.5-8.93 6.69-9 18c14.55-3.23 29.7-3.72 39 6c-4 0.33-8 0.67-12 1c18.79-0.48 36.19 9.54 44 20c30.34 40.62 7.18 106.01-26 131c-8.52 6.42-29.06 19.29-48 11c0.67 0 1.33 0 2 0c11.59-8.63 22.6-12.18 31-24c-0.33-0.33-0.67-0.67-1-1c-5.33 1-10.67 2-16 3c1.76-2.88 8.88-5.44 13-8c33.84-18.4 22.07-89.24-6-104c-7.24-4.07-19.29-10.34-24 0c0.94 2.75 1.34 8.12 0.56 10.35c-5.28 2.35-10.89 2.65-11.56 2.65c-6.33 0-4.67-2-11-2c2.91-28.37-32.17-37.78-59-32c1.33-1.67 2.67-3.33 4-5c13.5-5.5 28.85-9.89 48-6c-6.45-9.94-14.73-13.91-24-21z" />
	<path id="hair2" fill-rule="evenodd" class="s4" d="m190.2 76.68c2.22 1.72 7.71 2.34 18.86 30.82c7.34 24.56-3.95 31.08-13.88 35.49c8.92 4.86 19.52-5.92 23.21-10.83c5.41 12.93 9.45 24.16 8.43 35.11c0.08 0.23 0.15 0.45 0.23 0.68c21.47-21.01-10.37-106.96-41.23-91.36c1.46 0.03 2.92 0.06 4.38 0.09z" />
	<path id="m1" fill-rule="evenodd" class="s5" d="m132.47 141.88c2.66 0.59 9.79 4.11 17.17 3.92c7.81-0.21 12.83-2.6 16.76-3.92c0 0.29 0.87 1.45 0.87 1.74c-0.6 7.7-3.39 14.28-6.96 19.14c-4.48-6.38-20.61-5.38-24.36 2.61c-1.45-0.58-1.16-0.29-2.61-0.87c-1.22-7.52-1.05-13.62-0.87-22.62z" />
	<path id="m2" fill-rule="evenodd" class="s6" d="m146.39 157.54c7.44-0.09 9.86 1.54 13.92 4.35c-0.58 0.87-1.16 1.74-1.74 2.61c-7.43 2.89-13.48 5-22.62 2.61c-0.06-3.02-0.33-1.7 1.74-4.35c2.83-2.11 5.8-3.77 8.7-5.22z" />
	<path id="m3" class="s3" d="m162.98 139.27c3.46 0.58 4.85 2.41 6.9 4.3c-0.31 1.8-0.14 1.67-1.45 1.43c-0.24 0.12-0.48 0.24-0.73 0.36c-0.79 14.57-9.5 24.21-23.6 24.36c-3.95 0.04-6.64-0.42-9.08-2.15c-6.71-4.76-2.16-17.01-3.99-25.43c-1.87-0.15-1.89-0.33-2.91-1.07c0.24-0.36 0.48-0.72 0.73-1.07c11.64 0.63 24.25 9.56 35.22 1.43c-1.62-0.84-1.25-0.34-1.09-2.15zm-29.41 3.58c0.12 6.2-2.02 17.31 1.45 21.14c0.24-0.24 0.48-0.48 0.73-0.72c8.81-5.93 12.66-10.6 24.57-2.77c0 0.14 0.24 0.02 0.49-0.1c2.08-5.08 4.86-9.99 5.08-17.2c-0.12 0-0.24 0-0.36 0c-16.42 7.03-17.17 2.52-31.96-0.36zm13.07 15.76c-3.29 2-8.32 3.84-9.8 7.52c8.9 2.81 15.74-0.07 21.79-3.58c-0.24-0.36-0.48-0.72-0.73-1.07c-2.47-1.1-3.39-2.54-6.9-2.87c-1.65 1.31-1.44 3.14-2.91 4.66c-0.82 0.13-0.97-0.84-1.45-1.07c0.25-1.34 0.14-2.4 1.08-3.58c-0.36 0-0.72 0-1.08 0z" />
	<path id="eyes1" class="s3 doeyes" d="m179 129c-3.87 0-7-4.7-7-10.5c0-5.8 3.13-10.5 7-10.5c3.87 0 7 4.7 7 10.5c0 5.8-3.13 10.5-7 10.5zm-58-1c-3.87 0-7-4.7-7-10.5c0-5.8 3.13-10.5 7-10.5c3.87 0 7 4.7 7 10.5c0 5.8-3.13 10.5-7 10.5z" />
	<path id="eyes2" class="s7 doeyes" d="m175 119c-1.66 0-3-2.01-3-4.5c0-2.49 1.34-4.5 3-4.5c1.66 0 3 2.01 3 4.5c0 2.49-1.34 4.5-3 4.5zm-58 0c-1.66 0-3-2.01-3-4.5c0-2.49 1.34-4.5 3-4.5c1.66 0 3 2.01 3 4.5c0 2.49-1.34 4.5-3 4.5z" />
	<text id="loading" style="transform: matrix(1,0,0,1,150.103,259)" >
		<tspan x="-104.4" y="0" class="t8 shape" dx="0 -1 -1 -1 -1 -1 -1 -1" >LOADING
</tspan>
	</text>

<text id="plese" class="sss" style="transform: matrix(1,0,0,1,150.103,259)" >
		<tspan x="-60" y="25" class="t9" dx="0 -1 -1 -1 -1 -1 -1 -1" >PLEASE WAIT
</tspan>
	</text>
	<path id="l1" class="s9" d="m96.59 55.39l9.23 11.82l-10.24 8l-9.23-11.82l10.24-8z" />
	<path id="l2" class="s9" d="m96.59 55.39l9.23 11.82l-10.24 8l-9.23-11.82l10.24-8z" />
	<path id="l3" class="s9" d="m96.59 55.39l9.23 11.82l-10.24 8l-9.23-11.82l10.24-8z" />
	<path id="l4" class="s9" d="m96.59 55.39l9.23 11.82l-10.24 8l-9.23-11.82l10.24-8z" />


</svg>